<svg width="114" height="130" viewBox="0 0 114 130" fill="none" xmlns="http://www.w3.org/2000/svg">
<path d="M44.6875 113.75C42.4785 113.75 40.625 115.604 40.625 117.812V130H48.75V117.812C48.75 115.604 46.9219 113.75 44.6875 113.75ZM69.0625 113.75C66.8408 113.75 65 115.591 65 117.812C65 120.034 66.8408 121.875 69.0625 121.875C71.2842 121.875 73.125 120.034 73.125 117.812C73.125 115.591 71.2969 113.75 69.0625 113.75ZM41.6406 43.6719L43.7239 49.923C44.0324 50.8485 45.3426 50.8485 45.6511 49.923L47.7344 43.6719L53.9855 41.5891C54.9113 41.2796 54.9113 39.9704 53.9855 39.6609L47.7344 37.5781L45.6523 31.332C45.3438 30.4058 44.0337 30.4058 43.7252 31.332L41.6406 37.5781L35.3945 39.6602C34.4688 39.9697 34.4688 41.2788 35.3945 41.5883L41.6406 43.6719ZM85.3379 80.082C77.1875 85.9727 67.3105 89.375 56.875 89.375C46.4395 89.375 36.5549 85.965 28.4121 80.0846C11.8193 86.3789 0 102.4 0 121.189C0 126.064 3.94063 130 8.80039 130H32.5V113.75C32.5 109.243 36.1182 105.625 40.625 105.625H73.125C77.6318 105.625 81.25 109.243 81.25 113.75V130H104.95C109.814 130 113.75 126.064 113.75 121.189C113.75 102.4 101.943 86.3789 85.3379 80.082ZM16.25 56.875H19.6777C25.9746 71.2207 40.2188 81.25 56.875 81.25C73.5312 81.25 87.8008 71.2207 94.0723 56.875H97.5C99.7217 56.875 101.562 55.0342 101.562 52.8125V28.4375C101.562 26.2285 99.7344 24.375 97.5 24.375H94.0723C87.8008 10.0293 73.5312 0 56.875 0C40.2188 0 25.9746 10.0293 19.6777 24.375H16.25C14.0283 24.375 12.1875 26.2285 12.1875 28.4375V52.8125C12.1875 55.0469 14.0283 56.875 16.25 56.875ZM26.4062 34.5312C26.4062 28.9199 31.8652 24.375 38.5938 24.375H75.1562C81.8848 24.375 87.3438 28.9148 87.3438 34.5312V40.625C87.3438 54.082 76.4258 65 62.9688 65H50.7812C37.3242 65 26.4062 54.082 26.4062 40.625V34.5312Z" fill="#B0B0B0"/>
</svg>
