<svg width="114" height="130" viewBox="0 0 114 130" fill="none" xmlns="http://www.w3.org/2000/svg">
<path d="M95.9004 86.0234L105.333 62.4432C106.387 59.7695 104.432 56.875 101.334 56.875H86.7394C88.4863 53.1172 89.375 49.0039 89.375 44.6875C89.375 43.6422 89.1628 42.6418 89.066 41.6203C99.2012 39.3809 105.625 36.1309 105.625 32.5C105.625 28.4172 97.5635 24.8117 85.2338 22.6002C82.2148 11.4639 77.416 0 70.4336 0C67.798 0 65.452 1.14258 63.4816 2.66602C59.6096 5.68242 54.1506 5.68242 50.2785 2.66602C48.3184 1.14258 45.9824 0 43.3418 0C36.3594 0 31.5859 11.4664 28.5645 22.5926C16.2068 24.8016 8.125 28.4121 8.125 32.5C8.125 36.141 14.5514 39.3885 24.6848 41.6203C24.5883 42.6309 24.375 43.6465 24.375 44.6875C24.375 49.0039 25.2561 53.1172 26.7871 56.875H12.1926C9.31836 56.875 7.35313 59.7695 8.41953 62.4355L17.8521 86.0158C7.07637 94.0469 0 106.742 0 121.189C0 126.064 3.94063 130 8.80039 130H104.939C109.814 130 113.75 126.064 113.75 121.189C113.75 106.742 106.666 94.0469 95.9004 86.0234ZM44.6875 121.646L32.5 73.125L48.75 81.25L52.8125 89.375L44.6875 121.646ZM68.834 121.646L60.9375 89.375L65 81.25L81.25 73.125L68.834 121.646ZM81.25 47.2266C81.25 52.5586 76.8828 56.875 71.5 56.875H68.3693C64.19 56.875 60.6785 54.2369 59.3227 50.5299C58.9316 49.4863 57.9922 48.75 56.875 48.75C55.7578 48.75 54.8184 49.4863 54.4375 50.5273C53.0664 54.2344 49.5625 56.875 45.3984 56.875H42.2678C36.8672 56.875 32.5 52.5586 32.5 47.2266V43.0371C39.6855 44.0781 47.7598 44.6875 56.875 44.6875C65.9902 44.6875 74.0746 44.0824 81.25 43.044V47.2266Z" fill="#B0B0B0"/>
</svg>
