<svg width="114" height="130" viewBox="0 0 114 130" fill="none" xmlns="http://www.w3.org/2000/svg">
<path d="M8.25 48.75C15.1689 48.75 21.3896 45.8301 25.833 41.1963C29.6416 54.9072 42.083 65 57.0127 65C74.9766 65 89.2842 50.4639 89.2842 32.5C89.2842 14.5361 74.748 0 57.0127 0C44.2209 0 33.2395 7.45977 27.9404 18.2178C23.5098 12.124 16.375 8.125 8.25 8.125C8.25 16.5979 12.5969 24.0576 19.201 28.4375C12.5994 32.8301 8.25 40.2695 8.25 48.75ZM44.8125 24.375H68.959C73.6816 24.375 77.3125 28.0059 77.3125 32.5H36.6875C36.6875 28.0059 40.3184 24.375 44.8125 24.375ZM77.7695 77.9238L57 105.625L36.2305 77.9238C15.7047 81.6562 0.125 99.582 0.125 121.189C0.125 126.049 4.06563 129.992 8.92539 129.992H105.064C109.924 129.992 113.865 126.052 113.865 121.189C113.875 99.582 98.2852 81.6562 77.7695 77.9238Z" fill="#B0B0B0"/>
</svg>
