<svg width="20" height="21" viewBox="0 0 20 21" fill="none" xmlns="http://www.w3.org/2000/svg">
<path d="M19.1298 9.35798L1.61382 0.107979C1.32382 -0.0440207 0.973815 0.00597923 0.740815 0.233979C0.510815 0.459979 0.447816 0.810979 0.590816 1.10198L4.95282 10.022L0.590816 18.942C0.447816 19.234 0.510815 19.585 0.740815 19.81C0.885815 19.95 1.07382 20.022 1.26382 20.022C1.38382 20.022 1.50382 19.994 1.61382 19.935L19.1308 10.685C19.3758 10.555 19.5308 10.299 19.5308 10.021C19.5308 9.74298 19.3758 9.48898 19.1308 9.35898L19.1298 9.35798ZM2.94782 2.50998L15.7518 9.27198H6.25482L2.94782 2.51198V2.50998ZM6.25482 10.77H15.7528L2.94782 17.535L6.25482 10.772V10.77Z" fill="#21978B"/>
</svg>
